<svg xmlns="http://www.w3.org/2000/svg" xmlns:xlink="http://www.w3.org/1999/xlink" fill="none" version="1.1" width="850" height="1000" viewBox="0 0 850 1000"><g><g><path d="M3.344482421875,251.159L239.729482421875,394L425.000482421875,287.291L425.000482421875,0L3.344482421875,251.159Z" fill-rule="evenodd" fill="#1BBC9B" fill-opacity="1"/></g><g><path d="M3.04989,251L0,745.165L176.005,854L425,713.2080000000001L240.444,605.403L240.149,394.075L3.04989,251Z" fill-rule="evenodd" fill="#36D7B7" fill-opacity="1"/></g><g transform="matrix(-1,1.2246468525851679e-16,-1.2246468525851679e-16,-1,1700,1502)"><path d="M853.04989,751L850.0000000000002,1245.165L1026.005,1354L1275,1213.208L1090.444,1105.403L1090.149,894.075L853.04989,751Z" fill-rule="evenodd" fill="#19B5FE" fill-opacity="1"/></g><g transform="matrix(-1,1.2246468525851679e-16,-1.2246468525851679e-16,-1,1694,2000)"><path d="M846.9999999999998,1249.786L1083.729,1394L1269,1287.291L1269,1000L846.9999999999998,1249.786Z" fill-rule="evenodd" fill="#3498DB" fill-opacity="1"/></g><g><rect x="331" y="410" width="192" height="192" rx="17" fill="#2D9B32" fill-opacity="1"/></g><g><path d="M396,459L377,459L377,564L477,564L477,459L458,459L458,545L396,545L396,459Z" fill-rule="evenodd" fill="#FFFFFF" fill-opacity="1"/></g></g></svg>